<?xml version="1.0" encoding="utf-8"?>
<svg version="1.0" width="720.000000pt" height="1221.000000pt" viewBox="58.673 136.577 551.48 519.346" preserveAspectRatio="xMidYMid meet" style="" xmlns="http://www.w3.org/2000/svg">
  <defs/>
  <g transform="matrix(0.2532, 0, 0, -0.207824, -577.562151, 1671.554005)" fill="#000000" stroke="none" style="">
    <path d="M4564 7272 c-158 -152 -225 -215 -364 -337 -154 -137 -240 -219 -240&#10;-231 -1 -5 -8 -63 -16 -129 -8 -66 -19 -166 -24 -222 -9 -109 -19 -138 -53&#10;-154 -94 -43 -107 -65 -107 -186 0 -54 5 -105 10 -113 7 -11 10 3 10 45 1 91&#10;14 133 52 166 55 47 68 40 68 -37 0 -36 -4 -107 -9 -157 -6 -51 -15 -153 -21&#10;-227 -6 -74 -15 -173 -20 -220 -19 -169 -23 -250 -12 -250 11 0 17 17 47 130&#10;18 68 32 112 45 145 5 11 16 49 25 85 10 36 28 92 42 125 37 88 60 186 52 215&#10;-4 14 -7 44 -8 67 -1 43 -15 122 -33 184 -16 56 -12 60 183 193 69 47 100 89&#10;82 107 -7 7 -15 6 -24 -3 -8 -8 -63 -47 -123 -87 -85 -56 -111 -69 -117 -59&#10;-14 25 28 133 81 209 128 187 199 288 233 334 20 28 63 88 94 134 32 46 104&#10;144 161 219 56 74 102 136 102 138 0 18 -40 -10 -116 -84z" style="fill: rgb(231, 5, 5);"/>
    <path d="M2540 7337 c0 -1 29 -41 65 -87 65 -85 251 -346 270 -378 23 -39 103&#10;-152 159 -227 100 -130 133 -186 152 -253 24 -87 12 -95 -66 -43 -34 23 -63&#10;41 -66 41 -2 0 -27 18 -56 40 -54 41 -78 49 -78 28 1 -24 34 -54 146 -131 61&#10;-42 117 -83 124 -91 9 -12 8 -39 -8 -133 -41 -238 -40 -258 34 -439 20 -49 45&#10;-118 54 -154 58 -207 80 -274 95 -289 16 -15 17 -13 11 29 -21 137 -53 495&#10;-72 813 -6 98 3 109 48 58 15 -16 31 -30 38 -33 15 -5 29 -77 30 -156 0 -40 4&#10;-61 10 -57 6 4 10 55 10 121 0 135 -6 149 -85 194 -59 34 -59 34 -74 185 -18&#10;172 -32 300 -36 320 -2 11 -82 90 -176 175 -95 85 -204 185 -243 221 -39 36&#10;-102 94 -141 129 -38 35 -82 76 -97 92 -22 23 -48 37 -48 25z" style="fill: rgba(255, 0, 0, 0.976);"/>
    <path d="M3520 6478 c0 -134 33 -1026 50 -1367 7 -142 13 -188 24 -200 36 -35&#10;43 27 65 639 12 322 25 675 30 785 5 119 5 207 -1 218 -7 14 -23 17 -88 17&#10;l-80 0 0 -92z" style="fill: rgb(255, 255, 255);"/>
  </g>
</svg>